<svg xmlns="http://www.w3.org/2000/svg" xmlns:xlink="http://www.w3.org/1999/xlink" id="Calque_1" x="0px" y="0px" viewBox="0 0 937 192" style="enable-background:new 0 0 937 192;" xml:space="preserve">
<style type="text/css">
	.st0{fill:#4E88C8;}
	.st1{fill:#111111;}
</style>
<g>
	<path class="st0" d="M97.1,21.2L14.4,171.5h19.5l26.1-47.4h72.5l25.9,47.4h20.9L97.1,21.2z M69.5,107l26.9-49l26.7,49H69.5z"></path>
	<path class="st0" d="M273.7,101.5l-82.6-80.3v150.4h17.9v-107l63.5,61.5c20.9-22.3,42.5-43.5,64.6-63.4v108.9h17.9V21.4   L273.7,101.5z"></path>
	<path class="st1" d="M500.1,104.3c-6.9-5.5-16.7-9.8-29.3-12.8l-8.5-2.2c-9.6-2.4-16.8-5.6-21.7-9.6c-5.2-4.3-7.7-9.7-7.7-16.1   c0-7.1,2.6-13.2,7.7-18.1c4.8-4.6,10.7-7,17.7-7c7.9,0,15.1,1.3,21.6,4c5.9,2.5,11.7,6.4,17.3,11.8l13.4-12.5   c-6.9-6.7-14.4-11.8-22.3-15.1c-8.5-3.6-17.9-5.3-28.3-5.3c-12.1,0-22.6,4.2-31.4,12.5c-9,8.6-13.5,19-13.5,31.2   c0,11.2,4.4,20.5,13.2,27.9c6.9,5.7,16.2,10,28.1,13l8.7,2.2c10.1,2.4,17.8,5.7,23,9.7c5.4,4.4,8.1,9.7,8.1,15.9   c0,6.8-2.6,12.7-7.6,17.6c-5.3,5-11.9,7.5-19.6,7.5c-8.8,0-17.2-1.5-25.2-4.6c-8-3.1-15.1-7.5-21.4-13.3l-13.1,12.7   c7.8,7.2,16.6,12.7,26.6,16.6c10,3.8,20.5,5.8,31.4,5.8c1.9,0,3.2,0,4.2-0.1c11.3-1,21-5.3,29.1-13c9-8.5,13.5-18.6,13.5-30.6   C514.1,121.1,509.4,111.7,500.1,104.3z"></path>
	<path class="st1" d="M682.4,68.7c-3.9-9.3-9.4-17.6-16.6-24.8c-7.3-7.3-15.6-12.8-25-16.7c-9.4-3.9-19.3-5.8-29.6-5.8   c-10.5,0-20.5,2-30.1,6c-9.6,4-18.1,9.7-25.5,17.1c-7.4,7.4-13,15.8-16.9,25.2c-3.9,9.5-5.9,19.4-5.9,29.7c0,10.2,1.9,20,5.8,29.3   c3.8,9.3,9.4,17.5,16.6,24.7c7.3,7.3,15.6,12.8,25,16.7c9.4,3.9,19.3,5.8,29.6,5.8c2.2,0,4.4-0.1,6.6-0.3c9.3-0.8,18.1-3.1,26.5-7   c8.4-3.9,15.9-9.2,22.5-15.8c7.4-7.4,13-15.8,17-25.3c3.9-9.5,5.9-19.4,5.9-29.7C688.2,87.7,686.3,78,682.4,68.7z M665.8,122.4   c-3,7.3-7.3,13.7-13,19.4c-5.5,5.5-11.9,9.8-19,12.8s-14.7,4.4-22.6,4.4c-8,0-15.7-1.5-23.1-4.6c-7.4-3.1-13.9-7.4-19.6-13.2   c-5.8-5.8-10.2-12.4-13.3-19.9c-3.1-7.4-4.6-15.2-4.6-23.4c0-8,1.5-15.7,4.5-22.9c3-7.3,7.3-13.7,13-19.4c5.5-5.5,11.9-9.8,19-12.7   c7.2-3,14.7-4.4,22.6-4.4c8,0,15.7,1.5,23.1,4.6c7.4,3.1,13.9,7.4,19.6,13.2c5.8,5.8,10.2,12.4,13.3,19.9   c3.1,7.4,4.6,15.2,4.6,23.4C670.3,107.5,668.8,115.1,665.8,122.4z"></path>
	<path class="st1" d="M802.9,42.5V25.4h-87.7v146.2h17.9V107h63.2V89.9h-63.2V42.5H802.9z"></path>
	<path class="st1" d="M824.1,25.4v17.1h40v129.1h17.9V42.5H922V25.4H824.1z"></path>
</g>
</svg>